<svg width="151" height="27" viewBox="0 0 151 27" fill="none" xmlns="http://www.w3.org/2000/svg">
<path id="memory" fill-rule="evenodd" clip-rule="evenodd" d="M122.52 20.4133V10.4133C122.52 8.84 122.913 7.70667 123.7 7.01333C124.487 6.32 125.613 5.97333 127.08 5.97333C127.373 5.97333 127.64 5.98 127.88 5.99333C128.12 6.00667 128.4 6.04 128.72 6.09333V0.0133333C127.2 -0.0666667 125.907 0.213333 124.84 0.853333C123.773 1.49333 122.933 2.61333 122.32 4.21333L121.24 0.573333H116.44V20.4133H122.52ZM6.08 10.0533V20.4133H0V0.573333H5.32L6.08 3.21333C6.53333 2.46667 7.28 1.74667 8.32 1.05333C9.36 0.36 10.6133 0.0133333 12.08 0.0133333C13.6533 0.0133333 14.9133 0.293333 15.86 0.853333C16.8067 1.41333 17.5067 2.24 17.96 3.33333C18.7333 2.24 19.7133 1.41333 20.9 0.853333C22.0867 0.293333 23.3733 0.0133333 24.76 0.0133333C27.2933 0.0133333 29.04 0.726667 30 2.15333C30.96 3.58 31.44 5.64 31.44 8.33333V20.4133H25.36V9.85333C25.36 8.92 25.3067 8.06667 25.2 7.29333C25.0933 6.52 24.8267 5.9 24.4 5.43333C23.9733 4.96667 23.2667 4.73333 22.28 4.73333C21.0533 4.73333 20.16 5.16667 19.6 6.03333C19.04 6.9 18.76 8.2 18.76 9.93333V20.4133H12.64V9.85333C12.64 8.92 12.5933 8.06667 12.5 7.29333C12.4067 6.52 12.1533 5.9 11.74 5.43333C11.3267 4.96667 10.64 4.73333 9.68 4.73333C8.42667 4.73333 7.51333 5.18667 6.94 6.09333C6.36667 7 6.08 8.32 6.08 10.0533ZM50.06 19.8133C48.5 20.5333 46.9067 20.8933 45.28 20.8933C43.1467 20.8933 41.26 20.4733 39.62 19.6333C37.98 18.7933 36.7 17.5867 35.78 16.0133C34.86 14.44 34.4 12.56 34.4 10.3733C34.4 8.26667 34.8867 6.44 35.86 4.89333C36.8333 3.34667 38.1267 2.14667 39.74 1.29333C41.3533 0.44 43.12 0.0133333 45.04 0.0133333C47.2267 0.0133333 49.1 0.526667 50.66 1.55333C52.22 2.58 53.4 3.99333 54.2 5.79333C55 7.59333 55.3333 9.66667 55.2 12.0133H40.52C40.6267 13.4 41.14 14.44 42.06 15.1333C42.98 15.8267 44 16.1733 45.12 16.1733C46.0533 16.1733 46.86 16.0333 47.54 15.7533C48.22 15.4733 48.7467 15.12 49.12 14.6933L53.96 16.4533C52.92 17.9733 51.62 19.0933 50.06 19.8133ZM40.52 8.41333C40.7067 7.05333 41.2467 6.06667 42.14 5.45333C43.0333 4.84 44.0533 4.53333 45.2 4.53333C46.3733 4.53333 47.3867 4.86 48.24 5.51333C49.0933 6.16667 49.5333 7.13333 49.56 8.41333H40.52ZM64.16 10.0533V20.4133H58.08V0.573333H63.4L64.16 3.21333C64.6133 2.46667 65.36 1.74667 66.4 1.05333C67.44 0.36 68.6933 0.0133333 70.16 0.0133333C71.7333 0.0133333 72.9933 0.293333 73.94 0.853333C74.8867 1.41333 75.5867 2.24 76.04 3.33333C76.8133 2.24 77.7933 1.41333 78.98 0.853333C80.1667 0.293333 81.4533 0.0133333 82.84 0.0133333C85.3733 0.0133333 87.12 0.726667 88.08 2.15333C89.04 3.58 89.52 5.64 89.52 8.33333V20.4133H83.44V9.85333C83.44 8.92 83.3867 8.06667 83.28 7.29333C83.1733 6.52 82.9067 5.9 82.48 5.43333C82.0533 4.96667 81.3467 4.73333 80.36 4.73333C79.1333 4.73333 78.24 5.16667 77.68 6.03333C77.12 6.9 76.84 8.2 76.84 9.93333V20.4133H70.72V9.85333C70.72 8.92 70.6733 8.06667 70.58 7.29333C70.4867 6.52 70.2333 5.9 69.82 5.43333C69.4067 4.96667 68.72 4.73333 67.76 4.73333C66.5067 4.73333 65.5933 5.18667 65.02 6.09333C64.4467 7 64.16 8.32 64.16 10.0533ZM103 20.8933C104.813 20.8933 106.52 20.52 108.12 19.7733C109.72 19.0267 111.013 17.8733 112 16.3133C112.987 14.7533 113.48 12.7867 113.48 10.4133C113.48 8.01333 112.987 6.04667 112 4.51333C111.013 2.98 109.72 1.84667 108.12 1.11333C106.52 0.38 104.813 0.0133333 103 0.0133333C101.16 0.0133333 99.44 0.38 97.84 1.11333C96.24 1.84667 94.9467 2.98 93.96 4.51333C92.9733 6.04667 92.48 8.01333 92.48 10.4133C92.48 12.7867 92.9733 14.7533 93.96 16.3133C94.9467 17.8733 96.24 19.0267 97.84 19.7733C99.44 20.52 101.16 20.8933 103 20.8933ZM99.92 14.8533C100.747 15.7333 101.773 16.1733 103 16.1733C104.227 16.1733 105.247 15.7333 106.06 14.8533C106.873 13.9733 107.28 12.4933 107.28 10.4133C107.28 8.30667 106.86 6.83333 106.02 5.99333C105.18 5.15333 104.173 4.73333 103 4.73333C101.8 4.73333 100.78 5.15333 99.94 5.99333C99.1 6.83333 98.68 8.30667 98.68 10.4133C98.68 12.4933 99.0933 13.9733 99.92 14.8533ZM138 26.2933C136.987 26.6667 135.613 26.8533 133.88 26.8533H131.92V22.4533H133.12C134.027 22.4533 134.707 22.4133 135.16 22.3333C135.613 22.2533 135.967 22.06 136.22 21.7533C136.473 21.4467 136.707 20.96 136.92 20.2933L129.32 0.573333H135.84L139.72 12.9733L143.52 0.573333H150.04L142.44 20.4133C141.8 22.0933 141.153 23.4 140.5 24.3333C139.847 25.2667 139.013 25.92 138 26.2933Z" fill="#152938"/>
</svg>
